<svg xmlns="http://www.w3.org/2000/svg" xmlns:xlink="http://www.w3.org/1999/xlink" width="300" height="71" viewBox="0 0 300 71"><defs><path id="a" d="M0 0h123.265v69.975H0z"/><path id="c" d="M0 0h162.086v61.839H0z"/><path id="e" d="M0 0h34.047v33.264H0z"/></defs><g fill="none" fill-rule="evenodd"><g transform="translate(.018 .164)"><mask id="b" fill="#fff"><use xlink:href="#a"/></mask><path fill="#0A0B09" d="M35.583 61.673c6.4 11.059 16.872 11.059 23.273 0l3.58-6.186L30.396 0H-.019zM103.057 37.97c-2.338 4.031-7.843 4.027-10.176-.008L70.932 0H40.53l35.635 61.693c6.4 11.06 16.85 11.06 23.25 0l23.851-41.318L111.528 0h-30.39z" mask="url(#b)"/></g><path fill="#000" d="M143.887 32.786h6.235l.053-.195c3.846-14.27 5.424-20.364 6.065-24.14.624 3.765 2.122 9.946 5.8 24.137l.051.198h6.37L177.33.164h-5.802l-.051.197c-3.855 14.81-5.325 20.809-5.99 24.628-.774-4.106-2.445-10.88-6.053-24.629l-.052-.196h-6.061l-.05.198c-3.753 14.665-5.325 20.944-5.997 25.022-.735-3.973-2.388-10.56-6.135-25.023l-.052-.197h-6.023l8.77 32.427zM186.827 13.032c3.433 0 6.041 2.195 6.307 5.259h-12.737c.39-3.065 3.047-5.26 6.43-5.26m.356 20.206c4.712 0 9.173-2.57 10.956-6.395l-4.302-2.188-.092-.01-.08.169c-.522 1.083-2.432 3.602-6.438 3.602-3.638 0-6.406-2.315-6.83-5.665h18.528l.006-.257c.114-4.572-1.128-8.323-3.59-10.848-2.136-2.189-5.08-3.346-8.514-3.346-3.39 0-6.48 1.277-8.699 3.596-2.196 2.296-3.406 5.463-3.406 8.918 0 7.315 5.124 12.424 12.46 12.424M210.644 33.238c6.066 0 9.835-2.82 9.835-7.36 0-5.383-4.894-6.654-8.826-7.674-2.717-.705-5.063-1.315-5.063-3.04 0-1.389 1.466-2.359 3.565-2.359 2.295 0 3.884 1.212 4.145 3.162l.162.987.108-.018 4.823-.89c0-4.523-4.002-7.7-9.194-7.7-5.344 0-9.077 2.952-9.077 7.18 0 5.107 4.748 6.378 8.564 7.4 2.761.74 5.146 1.378 5.146 3.177 0 1.567-1.536 2.54-4.01 2.54-2.972 0-4.97-1.383-5.213-3.608l-.044-.365-5.11.97c0 4.951 5.545 7.598 10.19 7.598M224.795 28.346c0 2.7 1.71 4.891 4.54 4.891 3.51 0 4.542-.451 4.542-.451v-4.548s-1.053.173-2.334.173c-.828 0-1.41-.499-1.41-1.255V13.393h3.706l-.052-4.595h-3.654V1.972l-5.338 1.337v5.489h-2.786l-.015 4.595h2.801zM266.636 11.832V8.798h-4.699v23.988h5.648l-.046-14.67c.073-1.476.568-2.607 1.472-3.36 1.186-.99 3.033-1.328 5.486-1.003l.295.039.05-5.006-.23-.031c-3.384-.462-6.446.572-7.976 3.077"/><g transform="translate(137.638 8.3)"><mask id="d" fill="#fff"><use xlink:href="#c"/></mask><path fill="#0A0B09" d="M152.52 0c-3.395 0-6.576 1.353-8.151 3.924V.498h-4.888v23.988h5.69V11.61c0-4.137 2.165-6.607 5.79-6.607 2.48 0 5.436 1.083 5.436 6.246v13.237h5.69V10.48c0-7.727-4.941-10.48-9.567-10.48M20.477 47.896c0 5.544-2.626 8.596-7.393 8.596-4.739 0-7.348-3.052-7.348-8.596V28.782H0V47.76c0 8.827 4.891 14.096 13.084 14.096s13.084-5.27 13.084-14.096V28.782h-5.691z" mask="url(#d)"/></g><path fill="#000" d="M180.238 45.219c-3.395 0-6.576 1.353-8.151 3.923v-3.426h-4.889v23.989h5.692V56.829c0-4.137 2.164-6.607 5.79-6.607 2.479 0 5.434 1.083 5.434 6.245v13.238h5.69V55.699c0-7.727-4.941-10.48-9.566-10.48M193.331 69.705h5.647V45.716h-5.647z"/><g transform="translate(192.886 36.875)"><mask id="f" fill="#fff"><use xlink:href="#e"/></mask><path fill="#0A0B09" d="M3.29 0C1.446 0 0 1.422 0 3.237 0 4.997 1.476 6.43 3.29 6.43c1.79 0 3.247-1.432 3.247-3.193A3.245 3.245 0 0 0 3.29 0M21.364 28.098c-4.062 0-7.126-3.132-7.126-7.285s3.064-7.286 7.126-7.286c4.113 0 7.215 3.132 7.215 7.286 0 4.153-3.102 7.285-7.215 7.285m0-19.754c-3.513 0-6.724 1.261-9.043 3.55-2.32 2.29-3.596 5.457-3.596 8.919 0 7.225 5.316 12.469 12.639 12.469 7.35 0 12.683-5.244 12.683-12.47 0-3.463-1.278-6.63-3.6-8.917-2.326-2.29-5.551-3.551-9.083-3.551" mask="url(#f)"/></g><path fill="#000" d="M242.608 45.219c-3.395 0-6.576 1.353-8.15 3.923v-3.426h-4.889v23.989h5.69V56.829c0-4.137 2.165-6.607 5.791-6.607 2.48 0 5.435 1.083 5.435 6.245v13.238h5.69V55.699c0-7.727-4.942-10.48-9.567-10.48M240.968 18.29c.39-3.064 3.047-5.258 6.43-5.258 3.433 0 6.04 2.195 6.306 5.259zm6.43-9.99c-3.391 0-6.48 1.277-8.7 3.596-2.196 2.296-3.406 5.463-3.406 8.918 0 7.315 5.125 12.424 12.461 12.424 4.713 0 9.173-2.57 10.957-6.395l-4.303-2.188-.091-.01-.081.169c-.522 1.083-2.431 3.602-6.437 3.602-3.639 0-6.407-2.315-6.83-5.665h18.527l.007-.257c.113-4.572-1.129-8.323-3.591-10.848-2.135-2.189-5.08-3.346-8.514-3.346"/></g></svg>